<?xml version="1.0" encoding="utf-8"?>
<!-- Generator: Adobe Illustrator 22.1.0, SVG Export Plug-In . SVG Version: 6.00 Build 0)  -->
<svg version="1.1" id="Layer_1" xmlns="http://www.w3.org/2000/svg" xmlns:xlink="http://www.w3.org/1999/xlink" x="0px" y="0px"
	 viewBox="0 0 317.2 317.2" style="enable-background:new 0 0 317.2 317.2;" xml:space="preserve">
<style type="text/css">
	.st0{fill:#0067AC;}
	.st1{fill:#008774;}
	.st2{fill:#00AE9E;}
	.st3{fill:#119BD7;}
</style>
<g>
	<g>
		
			<rect x="176" y="201.7" transform="matrix(0.7071 -0.7071 0.7071 0.7071 -90.8898 192.5216)" class="st0" width="21.9" height="8.5"/>
		
			<rect x="161.4" y="222.9" transform="matrix(0.7071 -0.7071 0.7071 0.7071 -112.0524 183.7764)" class="st0" width="8.8" height="8.5"/>
		
			<rect x="196.4" y="176.9" transform="matrix(0.7071 -0.7071 0.7071 0.7071 -66.0789 202.7991)" class="st0" width="30.7" height="8.5"/>
		<path class="st0" d="M289.8,131.2c-6,0-11.6,2-16.2,5.3c-2.3,1.7-4.3,3.7-6,6c-1.9,2.6-3.4,5.6-4.3,8.8l-12.7,12.8l-21,21l6,6
			l17.6-17.6l9.7-9.7c0.8,4,2.4,7.7,4.8,10.9l0,0l-8.7,8.7L183.4,259c2.2,1.8,4.2,3.8,6,6l0,0l75.6-75.6l8.7-8.7
			c3.2,2.3,6.9,4,10.9,4.8l-9.7,9.7l-8.8,8.8l6,6l12.2-12.2l12.8-12.8c11.6-3.2,20.1-13.8,20.1-26.4
			C317.3,143.5,305,131.2,289.8,131.2z M289.8,177.5c-10.4,0-18.9-8.5-18.9-18.9s8.5-18.9,18.9-18.9s18.9,8.5,18.9,18.9
			S300.3,177.5,289.8,177.5z"/>
		
			<rect x="203.5" y="201.9" transform="matrix(0.7071 -0.7071 0.7071 0.7071 -82.9932 212.0134)" class="st0" width="21.9" height="8.5"/>
		
			<rect x="241.2" y="223.4" transform="matrix(0.7071 -0.7071 0.7071 0.7071 -88.1837 242.3555)" class="st0" width="14.6" height="8.5"/>
		
			<rect x="216.9" y="243.2" transform="matrix(0.7071 -0.7071 0.7071 0.7071 -107.9833 234.2282)" class="st0" width="23.6" height="8.5"/>
	</g>
	<g>
		
			<rect x="119.8" y="192.5" transform="matrix(0.7071 -0.7071 0.7071 0.7071 -104.9432 146.2413)" class="st1" width="8.5" height="14.6"/>
		
			<rect x="94" y="166.7" transform="matrix(0.7071 -0.7071 0.7071 0.7071 -94.2409 120.4416)" class="st1" width="8.5" height="14.6"/>
		
			<rect x="134.6" y="209.7" transform="matrix(0.7071 -0.7071 0.7071 0.7071 -111.0098 160.9708)" class="st1" width="8.5" height="9.6"/>
		<path class="st1" d="M180.8,273.7L180.8,273.7c-1.7-2.3-3.7-4.3-6-6l0,0c-2.7-2-5.8-3.5-9.2-4.4l0.1-0.1l-12.6-12.6l-38.8-38.8
			l-6,6l35.3,35.3l9.7,9.7c-4,0.8-7.7,2.4-10.9,4.8l-8.7-8.7l-75.6-75.6c-1.8,2.2-3.8,4.2-6,6l75.6,75.6l8.7,8.7
			c-2.3,3.2-4,6.9-4.8,10.9l-8.7-8.7l-2.1,2.1l-3.9,3.9l2.5,2.5l12.8,12.8c3.2,11.6,13.8,20.1,26.4,20.1c15.1,0,27.4-12.3,27.4-27.4
			C186,283.8,184.1,278.2,180.8,273.7z M158.6,308.8c-10.4,0-18.9-8.5-18.9-18.9s8.5-18.9,18.9-18.9s18.9,8.5,18.9,18.9
			S169,308.8,158.6,308.8z"/>
		
			<rect x="97.6" y="249.8" transform="matrix(0.7071 -0.7071 0.7071 0.7071 -154.5666 148.3633)" class="st1" width="8.5" height="21.9"/>
		
			<rect x="72.3" y="219.5" transform="matrix(0.7071 -0.7071 0.7071 0.7071 -144.1276 123.0987)" class="st1" width="8.5" height="32"/>
		<path class="st1" d="M91.6,189.1l-25-25c-0.5,3.3-1.3,6.5-2.5,9.5l21.6,21.6L91.6,189.1z"/>
		
			<rect x="95.7" y="196.2" transform="matrix(0.7071 -0.7071 0.7071 0.7071 -114.6268 130.3059)" class="st1" width="8.5" height="14.6"/>
	</g>
	<g>
		
			<rect x="121.2" y="94.1" transform="matrix(0.7071 -0.7071 0.7071 0.7071 -27.6379 129.9917)" class="st2" width="43.8" height="8.5"/>
		
			<rect x="90.6" y="138.2" transform="matrix(0.7071 -0.7071 0.7071 0.7071 -71.7693 111.6852)" class="st2" width="16.7" height="8.5"/>
		
			<rect x="109" y="120.9" transform="matrix(0.7071 -0.7071 0.7071 0.7071 -54.4604 118.9142)" class="st2" width="14.6" height="8.5"/>
		
			<rect x="86.8" y="115.4" transform="matrix(0.7071 -0.7071 0.7071 0.7071 -57.0322 101.5919)" class="st2" width="14.6" height="8.5"/>
		
			<rect x="110.5" y="84.4" transform="matrix(0.7071 -0.7071 0.7071 0.7071 -26.027 114.4174)" class="st2" width="29.2" height="8.5"/>
		<path class="st2" d="M64,143.7l-9.7,9.7c-0.8-4-2.4-7.7-4.8-10.9l8.7-8.7l75.6-75.6l0,0c-2.2-1.8-4.2-3.8-6-6l0,0l-75.6,75.6l0,0
			l-8.7,8.7l0,0c-3.2-2.3-6.9-4-10.9-4.8l9.7-9.7l9.6-9.6l-6-6l-13.1,13.1l-12.7,12.7C8.5,135.4,0,146,0,158.6
			C0,173.7,12.3,186,27.4,186c6,0,11.6-2,16.1-5.3c2.3-1.7,4.3-3.7,6-6c1.9-2.6,3.4-5.6,4.3-8.8l1.3-1.3l6-6l5.5-5.5l19.2-19.2l-6-6
			L64,143.7z M27.4,177.5c-10.4,0-18.9-8.5-18.9-18.9s8.5-18.9,18.9-18.9s18.9,8.5,18.9,18.9S37.8,177.5,27.4,177.5z"/>
		
			<rect x="53" y="93.7" transform="matrix(0.7071 -0.7071 0.7071 0.7071 -51.5956 71.3196)" class="st2" width="14.6" height="8.5"/>
		
			<rect x="78.8" y="67.9" transform="matrix(0.7071 -0.7071 0.7071 0.7071 -25.7913 82.0217)" class="st2" width="14.6" height="8.5"/>
	</g>
	<g>
		
			<rect x="213.1" y="134.3" transform="matrix(0.7071 -0.7071 0.7071 0.7071 -36.48 195.1539)" class="st3" width="8.5" height="14.6"/>
		
			<rect x="187.3" y="108.5" transform="matrix(0.7071 -0.7071 0.7071 0.7071 -25.7803 169.3571)" class="st3" width="8.5" height="14.6"/>
		
			<rect x="180" y="73.5" transform="matrix(0.7071 -0.7071 0.7071 0.7071 -3.1626 153.9597)" class="st3" width="8.5" height="14.6"/>
		
			<rect x="205.8" y="92" transform="matrix(0.7071 -0.7071 0.7071 0.7071 -13.8687 179.7607)" class="st3" width="8.5" height="29.2"/>
		
			<rect x="219.9" y="57.9" transform="matrix(0.7071 -0.7071 0.7071 0.7071 19.5635 177.5976)" class="st3" width="8.5" height="14.6"/>
		
			<rect x="247.4" y="75.7" transform="matrix(0.7071 -0.7071 0.7071 0.7071 8.1633 205.0973)" class="st3" width="8.5" height="34"/>
		<path class="st3" d="M189.4,52.2l-8.7-8.7c2.3-3.2,4-6.9,4.8-10.9l9.7,9.7l14.5,14.5l6-6l-18-18L185,20.1
			C181.8,8.5,171.2,0,158.6,0c-15.1,0-27.4,12.3-27.4,27.4c0,6,2,11.6,5.3,16.1l0,0c1.7,2.3,3.7,4.3,6,6l0,0
			c2.6,1.9,5.6,3.4,8.8,4.3l12.8,12.8l1.7,1.7l2.5-2.5l3.5-3.5l-8-8c4-0.8,7.7-2.4,10.9-4.8l8.7,8.7l9,9l66.6,66.6
			c1.8-2.2,3.8-4.2,6-6l-66.6-66.6L189.4,52.2z M158.6,46.3c-10.4,0-18.9-8.5-18.9-18.9s8.5-18.9,18.9-18.9s18.9,8.5,18.9,18.9
			S169,46.3,158.6,46.3z"/>
		<polygon class="st3" points="183.4,259 183.4,259 259,183.4 259,183.4 		"/>
	</g>
</g>
</svg>
