<?xml version="1.0" encoding="utf-8"?>
<!-- Generator: Adobe Illustrator 22.1.0, SVG Export Plug-In . SVG Version: 6.00 Build 0)  -->
<svg version="1.1" id="Layer_1" xmlns="http://www.w3.org/2000/svg" xmlns:xlink="http://www.w3.org/1999/xlink" x="0px" y="0px"
	 viewBox="0 0 341.1 264.6" style="enable-background:new 0 0 341.1 264.6;" xml:space="preserve">
<style type="text/css">
	.st0{fill:#009FDF;}
	.st1{fill:#008774;}
	.st2{fill:#00AE9E;}
	.st3{fill:#0066AC;}
</style>
<title>clouds</title>
<g id="Layer_2_1_">
	<g id="Layer_1-2">
		<path class="st0" d="M322.4,97.2l8.4-4.7c-18.2-32.4-56-48.3-91.9-38.8c-3.9-5.3-8.3-10.3-12.9-15C174.2-12.9,90.5-12.9,38.8,38.7
			s-51.7,135.4-0.1,187.1c24.8,24.8,58.5,38.8,93.6,38.8h49.2V255h-49.2C64.6,255,9.6,200,9.6,132.3S64.6,9.6,132.4,9.6
			c67.8,0,122.7,54.9,122.7,122.7h9.6c0-15.7-2.8-31.3-8.2-46.1c1.1-0.1,2.3-0.1,3.4-0.1c25.5,0,46.2,20.7,46.2,46.2h9.6
			c0-30.8-25-55.7-55.8-55.8c-2.4,0-4.8,0.2-7.2,0.5c-2.3-5.1-5-10-8-14.8C275.4,55.5,307,69.7,322.4,97.2L322.4,97.2z"/>
		<path class="st0" d="M102.1,132.3c0,16.7,13.6,30.3,30.3,30.3V153c-11.4,0-20.7-9.3-20.7-20.7H102.1z"/>
		<path class="st0" d="M334.8,100.9l-8.8,3.7c3.7,8.8,5.6,18.2,5.5,27.7h9.6C341.1,121.5,338.9,110.8,334.8,100.9z"/>
		<rect x="190.2" y="255" class="st0" width="30.4" height="9.6"/>
		<rect x="229.3" y="255" class="st0" width="30.5" height="9.6"/>
		<rect x="152.9" y="178.5" class="st1" width="30.4" height="9.6"/>
		<path class="st1" d="M86.1,132.3c0.4-25.5,21.4-45.9,46.9-45.5c25,0.4,45.2,20.5,45.5,45.5h9.5c0-30.8-25-55.8-55.8-55.7
			c-30.8,0-55.8,25-55.7,55.8c0,19.7,10.4,37.9,27.3,47.9l4.9-8.2C94.7,163.7,86.1,148.6,86.1,132.3z"/>
		<path class="st1" d="M115.8,175.5l-3.4,8.9c6.4,2.4,13.1,3.7,19.9,3.6h11.8v-9.6h-11.8C126.7,178.5,121.1,177.5,115.8,175.5z"/>
		<path class="st2" d="M204.1,132.3h9.6c0-10.8-2.2-21.5-6.4-31.5l-8.8,3.7C202.2,113.3,204.1,122.7,204.1,132.3z"/>
		<path class="st2" d="M51.1,132.3c0,44.1,35.2,80.2,79.3,81.2l0.2-9.6c-39.6-1-70.9-33.9-69.9-73.4s33.9-70.9,73.4-69.9
			c12.6,0.3,24.8,3.9,35.5,10.4l5-8.2C136.3,39.5,86.3,51.7,62.9,90C55.2,102.7,51.1,117.4,51.1,132.3z"/>
		<path class="st2" d="M194.9,97.2l8.3-4.7c-5.3-9.4-12.4-17.7-21-24.4l-5.9,7.6C183.9,81.5,190.2,88.8,194.9,97.2z"/>
		<rect x="178.4" y="204" class="st2" width="30.4" height="9.6"/>
		<path class="st3" d="M207.8,71c6.1,7.5,11.1,15.9,14.7,24.9l8.9-3.6c-4-9.9-9.4-19.1-16.1-27.3L207.8,71z"/>
		<path class="st3" d="M132.3,25.5c-59,0-106.8,47.8-106.8,106.8S73.4,239,132.3,239H156v-9.6h-23.7c-53.7,0-97.2-43.6-97.1-97.3
			S78.8,35,132.5,35.1c26.3,0,51.5,10.7,69.8,29.7l6.9-6.6C189.1,37.2,161.3,25.4,132.3,25.5z"/>
		<rect x="164.7" y="229.5" class="st3" width="30.4" height="9.6"/>
	</g>
</g>
</svg>
