<?xml version="1.0" encoding="utf-8"?>
<!-- Generator: Adobe Illustrator 22.1.0, SVG Export Plug-In . SVG Version: 6.00 Build 0)  -->
<svg version="1.1" id="Layer_1" xmlns="http://www.w3.org/2000/svg" xmlns:xlink="http://www.w3.org/1999/xlink" x="0px" y="0px"
	 viewBox="0 0 306.9 298.4" style="enable-background:new 0 0 306.9 298.4;" xml:space="preserve">
<style type="text/css">
	.st0{fill:#008774;}
	.st1{fill:#01AD9D;}
	.st2{fill:#0168AB;}
	.st3{fill:#169DD9;}
</style>
<title>opensource_1</title>
<g id="Layer_2_1_">
	<g id="Layer_1-2">
		
			<rect x="242.3" y="224.7" transform="matrix(0.7072 -0.707 0.707 0.7072 -102.1634 246.4674)" class="st0" width="8.5" height="43.7"/>
		
			<rect x="263.2" y="197.5" transform="matrix(0.5002 -0.8659 0.8659 0.5002 -56.2434 341.2174)" class="st1" width="8.5" height="43.7"/>
		
			<rect x="276.3" y="165.7" transform="matrix(0.2588 -0.9659 0.9659 0.2588 26.8132 410.0141)" class="st2" width="8.5" height="43.7"/>
		<rect x="263.2" y="149.2" class="st3" width="43.7" height="8.5"/>
		
			<rect x="258.8" y="115.1" transform="matrix(0.9659 -0.2588 0.2588 0.9659 -21.34 76.6893)" class="st0" width="43.7" height="8.5"/>
		<rect x="245.6" y="83.4" transform="matrix(0.866 -0.5 0.5 0.866 -8.0125 145.4586)" class="st1" width="43.7" height="8.5"/>
		
			<rect x="224.7" y="56.2" transform="matrix(0.7071 -0.7071 0.7071 0.7071 29.4719 192.0195)" class="st2" width="43.7" height="8.5"/>
		
			<rect x="197.4" y="35.2" transform="matrix(0.4998 -0.8661 0.8661 0.4998 75.4664 209.6212)" class="st3" width="43.7" height="8.5"/>
		
			<rect x="165.7" y="22.1" transform="matrix(0.2588 -0.9659 0.9659 0.2588 113.5464 200.6638)" class="st0" width="43.7" height="8.5"/>
		<rect x="149.2" class="st1" width="8.5" height="43.7"/>
		
			<rect x="115.1" y="4.5" transform="matrix(0.9659 -0.2588 0.2588 0.9659 -2.7459 31.7987)" class="st2" width="8.5" height="43.7"/>
		<rect x="83.4" y="17.6" transform="matrix(0.866 -0.5 0.5 0.866 -7.9901 49.1156)" class="st3" width="8.5" height="43.7"/>
		
			<rect x="56.2" y="38.6" transform="matrix(0.7072 -0.707 0.707 0.7072 -25.0309 60.3933)" class="st0" width="8.5" height="43.7"/>
		<rect x="35.2" y="65.8" transform="matrix(0.5 -0.866 0.866 0.5 -56.1744 78.0063)" class="st1" width="8.5" height="43.7"/>
		
			<rect x="22.1" y="97.6" transform="matrix(0.2588 -0.9659 0.9659 0.2588 -95.828 113.9257)" class="st2" width="8.5" height="43.7"/>
		<rect y="149.2" class="st3" width="43.7" height="8.5"/>
		
			<rect x="4.5" y="183.3" transform="matrix(0.9659 -0.2588 0.2588 0.9659 -47.6469 13.1994)" class="st0" width="43.7" height="8.5"/>
		
			<rect x="17.7" y="215" transform="matrix(0.8659 -0.5002 0.5002 0.8659 -104.38 49.1483)" class="st1" width="43.7" height="8.5"/>
		
			<rect x="38.5" y="242.3" transform="matrix(0.7071 -0.7071 0.7071 0.7071 -156.6681 114.9188)" class="st2" width="43.7" height="8.5"/>
		<rect x="129.6" y="258.1" class="st2" width="47.7" height="8.5"/>
		<rect x="129.6" y="274" class="st2" width="47.7" height="8.5"/>
		<rect x="129.6" y="289.9" class="st2" width="47.7" height="8.5"/>
		<path class="st3" d="M153.4,75.1c-43.9,0-79.5,35.5-79.5,79.4c0,13.1,3.2,26,9.4,37.6l7.5-3.9c-5.6-10.3-8.5-21.9-8.4-33.6
			c0-39.2,31.8-71,71-71s71,31.8,71,71c0.1,16.1-5.4,31.6-15.4,44.2c-8,10-18.5,17.7-30.4,22.2l-8.6-38.6
			c15.3-9.2,20.3-29,11.2-44.3c-9.2-15.3-29-20.3-44.3-11.2c-9.8,5.8-15.8,16.4-15.8,27.8c0,5.5,1.4,10.9,4.1,15.7l7.5-3.9
			c-6.5-11.4-2.5-26,8.9-32.5s26-2.5,32.5,8.9s2.5,26-8.9,32.5c-1.6,0.9-3.3,1.6-5,2.1l12,54.4c42.7-10.3,68.9-53.3,58.5-96
			C222.1,100.2,190.1,75.1,153.4,75.1z"/>
		<path class="st3" d="M136.9,182.4l-8.6,38.6c-11.9-4.5-22.5-12.2-30.4-22.2l-0.2-0.3l-6.7,5.2c11,14,26.4,23.9,43.7,28.1l12-54.4
			c-4.5-1.4-8.5-4-11.6-7.6l-6.6,5.2C130.8,177.9,133.7,180.4,136.9,182.4z"/>
		<path class="st3" d="M128.4,175l6.7-5.1c-0.9-1.1-1.7-2.2-2.4-3.4l-7.5,3.9C126.2,172,127.3,173.6,128.4,175z"/>
	</g>
</g>
</svg>
